<?xml version="1.0" encoding="utf-8"?>
<svg width="128" height="128" viewBox="0 0 128 128" fill="none" xmlns="http://www.w3.org/2000/svg">
  <g>
    <g>
      <path d="M33 0L32.9999 32.9998L0 33L33 0Z" fill="#000000" fill-rule="evenodd" transform="translate(95 95)" />
      <path d="M33 0L32.9999 32.9999L0 33L33 0Z" fill="#000000" fill-rule="evenodd" transform="matrix(-1 0 0 -1 33 33)" />
    </g>
    <g>
      <path d="M0 69.4789L0 65.0732L7.50286 65.0732C7.50286 65.0732 7.50286 30.1575 7.50286 30.1575C7.50286 24.4006 9.42191 19.3384 13.26 14.9708C17.0981 10.6032 21.9638 7.88338 27.8571 6.81131C27.8571 6.81131 27.8571 0 27.8571 0L37.1429 0C37.1429 0 37.1429 6.81131 37.1429 6.81131C43.0362 7.88632 47.9019 10.6076 51.74 14.9752C55.5781 19.3428 57.4971 24.405 57.4971 30.1619C57.4971 30.1619 57.4971 65.0688 57.4971 65.0688L65 65.0688L65 69.4745L0 69.4789ZM32.4854 80.9996C30.4178 80.9996 28.6535 80.302 27.1925 78.9068C25.7316 77.5117 25.0011 75.8375 25.0011 73.8843C25.0011 73.8843 39.9975 73.8843 39.9975 73.8843C39.9975 75.8522 39.2624 77.5293 37.7922 78.9157C36.3188 80.302 34.5499 80.9952 32.4854 80.9952C32.4854 80.9952 32.4854 80.9996 32.4854 80.9996ZM12.1461 65.0733L52.8594 65.0733C52.8594 65.0733 52.8594 30.162 52.8594 30.162C52.8594 24.8076 50.8769 20.2491 46.9118 16.4865C42.9469 12.724 38.143 10.8442 32.5004 10.8472C26.8578 10.8501 22.054 12.7299 18.089 16.4865C14.124 20.2432 12.143 24.8017 12.1461 30.162C12.1461 30.162 12.1461 65.0733 12.1461 65.0733ZM30.1793 43.2161L34.8221 43.2161L34.8221 22.0288L30.1793 22.0288L30.1793 43.2161ZM32.4999 55.5832C33.3109 55.5832 33.9903 55.3232 34.5381 54.8033C35.086 54.2834 35.3584 53.6402 35.3553 52.8736C35.3522 52.107 35.0782 51.4638 34.5335 50.9439C33.9887 50.424 33.3109 50.1641 32.4999 50.1641C31.6889 50.1641 31.0111 50.424 30.4663 50.9439C29.9216 51.4638 29.6476 52.107 29.6445 52.8736C29.6414 53.6402 29.9154 54.2849 30.4663 54.8077C31.0173 55.3306 31.6951 55.589 32.4999 55.5832C32.4999 55.5832 32.4999 55.5832 32.4999 55.5832Z" fill="#000000" transform="translate(32 24)" />
    </g>
  </g>
</svg>