<?xml version="1.0" encoding="utf-8"?>
<svg width="128" height="128" viewBox="0 0 128 128" fill="none" xmlns="http://www.w3.org/2000/svg">
  <g>
    <g>
      <path d="M22.7733 80L30.56 80L30.56 68.9067L48 51.4667L48 26.6667L5.33333 26.6667L5.33333 51.4667L22.7733 68.9067L22.7733 80ZM17.44 85.3333L17.44 71.1787L0 53.744L0 21.3333L12.512 21.3333L12.512 0L17.8453 0L17.8453 21.3333L35.488 21.3333L35.488 0L40.8213 0L40.8213 21.3333L53.3333 21.3333L53.3333 53.744L35.8933 71.184L35.8933 85.3333L17.44 85.3333Z" fill="#000000" transform="translate(37.333 21.333)" />
    </g>
    <path d="M33 0L32.9999 32.9999L0 33L33 0Z" fill="#000000" fill-rule="evenodd" transform="matrix(-1 0 0 -1 33 33)" />
    <path d="M33 0L32.9999 32.9998L0 33L33 0Z" fill="#000000" fill-rule="evenodd" transform="translate(95 95)" />
  </g>
</svg>