<?xml version="1.0" encoding="utf-8"?>
<svg width="128" height="128" viewBox="0 0 128 128" fill="none" xmlns="http://www.w3.org/2000/svg">
  <g>
    <g>
      <path d="M33 0L32.9999 32.9998L0 33L33 0Z" fill="#000000" fill-rule="evenodd" transform="translate(95 95)" />
      <path d="M33 0L32.9999 32.9999L0 33L33 0Z" fill="#000000" fill-rule="evenodd" transform="matrix(-1 0 0 -1 33 33)" />
    </g>
    <g>
      <path d="M0 76L0 25.3333L42.1429 25.3333C42.1429 25.3333 42.1429 16.8889 42.1429 16.8889C42.1429 13.3704 40.9137 10.3796 38.4554 7.91667C35.997 5.4537 33.0119 4.22222 29.5 4.22222C25.9881 4.22222 23.003 5.4537 20.5446 7.91667C18.0863 10.3796 16.8571 13.3704 16.8571 16.8889C16.8571 16.8889 12.6429 16.8889 12.6429 16.8889C12.6429 12.1853 14.2794 8.19533 17.5525 4.91889C20.8228 1.63963 24.8053 0 29.5 0C34.1947 0 38.1786 1.63963 41.4517 4.91889C44.7248 8.19815 46.36 12.1881 46.3571 16.8889C46.3571 16.8889 46.3571 25.3333 46.3571 25.3333L59 25.3333L59 76L0 76ZM4.21349 71.7775L54.7849 71.7775L54.7849 29.5553L4.21349 29.5553L4.21349 71.7775ZM29.4993 56.9998C31.2778 56.9998 32.7752 56.389 33.9918 55.1674C35.2111 53.9486 35.8208 52.4483 35.8208 50.6665C35.8208 48.8847 35.2111 47.3844 33.9918 46.1656C32.7724 44.9468 31.2749 44.336 29.4993 44.3332C27.7237 44.3304 26.2262 44.9412 25.0069 46.1656C23.7876 47.3844 23.1779 48.8847 23.1779 50.6665C23.1779 52.4483 23.7876 53.9486 25.0069 55.1674C26.2234 56.389 27.7209 56.9998 29.4993 56.9998C29.4993 56.9998 29.4993 56.9998 29.4993 56.9998ZM4.21349 71.7775L4.21349 29.5553L4.21349 71.7775Z" fill="#000000" transform="translate(35 22)" />
    </g>
  </g>
</svg>